# xmcd
#
# Track frame offsets: 
#        150
#        15735
#        31930
#        49470
#        65137
#        86265
#        103075
#        126317
#        145895
#        161480
#        179377
#        194132
#        208202
#        228267
#        246722
#        265982
#        288457
#        309117
#
# Disc length: 4446 seconds
#
# Revision: 2
# Processed by: cddbd v1.5.1PL0 Copyright (c) Steve Scherf et al.
# Submitted via: ExactAudioCopy v0.95b1
#
DISCID=15115c12
DTITLE=Various Artist - ROTTERDAM TECHNO =HARD HARD HARD VOL.2
DYEAR=1993
DGENRE=GABBA
TTITLE0=Oranje Boven (Radio) - Euromasters
TTITLE1=Bitch - Underground Nation of Rotterdam
TTITLE2=Drummachine - Bald Terror
TTITLE3=Frequency - Sperminator
TTITLE4=Ba Da Da, Na Na Na (Rotterdam Mix) - The Ultimate Seduction
TTITLE5=Mechanic - Short Circuit
TTITLE6=The Beat Is Flown - DJ. Rob Feauturing MC. Joe
TTITLE7=Powerfull Impact - Evil Maniax
TTITLE8=Everybody Clap Your Hands - Euromasters
TTITLE9=Royal King - Short Circuit
TTITLE10=Houw Je Bek (Galla) - Euromasters
TTITLE11=Noiken In Die Koiken (Hoi) - Euromasters
TTITLE12=Let's Go - Sub Zero
TTITLE13=I Am The Master - Underground Nation of Rotterdam
TTITLE14=Blood Thursty - A Bald Lunatic
TTITLE15=Cocaine - Michael Whiteline
TTITLE16=Hardcore Sexual Interface - Speed Soul Brothers
TTITLE17=Feyenoord - R.T.S. (Rotterdam Termination Source)
EXTD=
EXTT0=
EXTT1=
EXTT2=
EXTT3=
EXTT4=
EXTT5=
EXTT6=
EXTT7=
EXTT8=
EXTT9=
EXTT10=
EXTT11=
EXTT12=
EXTT13=
EXTT14=
EXTT15=
EXTT16=
EXTT17=
PLAYORDER=
